<svg width="89" height="86" viewBox="0 0 89 86" fill="none" xmlns="http://www.w3.org/2000/svg">
<g filter="url(#filter0_d_11_66)">
<ellipse cx="44.5" cy="39" rx="40.5" ry="39" fill="#8A8A7F"/>
<path d="M44.3191 10.5303L44.4802 10.4033C46.1765 9.13401 48.7952 9.17647 50.43 10.5303C52.0648 11.8841 52.1161 14.0527 50.5834 15.4574L50.43 15.5908L20.3205 40.525L14.2096 35.4645L44.3191 10.5303Z" fill="#001489"/>
<path d="M44.1095 66.9952L44.2706 67.1222C45.9669 68.3915 48.5856 68.349 50.2204 66.9952C51.8552 65.6414 51.9064 63.4728 50.3738 62.0681L50.2204 61.9347L20.1109 37.0005L14 42.061L44.1095 66.9952Z" fill="#001489"/>
<path d="M73.9649 37.7159L74.0698 37.7185C75.1451 37.7698 76 38.6063 76 39.6308C76 40.6553 75.1451 41.4918 74.0698 41.5431L73.9649 41.5457H35.4691V37.7159H73.9649Z" fill="#001489"/>
</g>
<defs>
<filter id="filter0_d_11_66" x="0" y="0" width="89" height="86" filterUnits="userSpaceOnUse" color-interpolation-filters="sRGB">
<feFlood flood-opacity="0" result="BackgroundImageFix"/>
<feColorMatrix in="SourceAlpha" type="matrix" values="0 0 0 0 0 0 0 0 0 0 0 0 0 0 0 0 0 0 127 0" result="hardAlpha"/>
<feOffset dy="4"/>
<feGaussianBlur stdDeviation="2"/>
<feComposite in2="hardAlpha" operator="out"/>
<feColorMatrix type="matrix" values="0 0 0 0 0.0108509 0 0 0 0 0.25988 0 0 0 0 0.564248 0 0 0 0.25 0"/>
<feBlend mode="normal" in2="BackgroundImageFix" result="effect1_dropShadow_11_66"/>
<feBlend mode="normal" in="SourceGraphic" in2="effect1_dropShadow_11_66" result="shape"/>
</filter>
</defs>
</svg>
