<svg width="108" height="108" viewBox="0 0 108 108" fill="none" xmlns="http://www.w3.org/2000/svg">
<g filter="url(#filter0_d_12_73)">
<circle cx="54" cy="50" r="49.5" fill="#F5E1A4" stroke="black"/>
<mask id="path-2-outside-1_12_73" maskUnits="userSpaceOnUse" x="42" y="19" width="24" height="58" fill="black">
<rect fill="white" x="42" y="19" width="24" height="58"/>
<path d="M62.709 73.7148C63.0605 73.7148 63.3828 73.7441 63.6758 73.8027C64.4375 73.9199 64.8184 74.6523 64.8184 76H43.1973V73.7148C43.959 73.7148 44.6328 73.6562 45.2188 73.5391C47.2695 73.1875 48.2949 71.7227 48.2949 69.1445V40.4922H43.1973V38.207H59.457V73.7148H62.709ZM60.248 26.6934C60.248 27.8066 59.9551 28.8613 59.3691 29.8574C58.1387 32.0254 56.2344 33.1094 53.6562 33.1094C52.6016 33.1094 51.5762 32.8457 50.5801 32.3184C48.2949 31.1465 47.1523 29.2715 47.1523 26.6934C47.1523 25.5801 47.416 24.5254 47.9434 23.5293C49.2324 21.2441 51.1367 20.1016 53.6562 20.1016C54.7695 20.1016 55.8242 20.3945 56.8203 20.9805C59.1055 22.2109 60.248 24.1152 60.248 26.6934Z"/>
</mask>
<path d="M62.709 73.7148C63.0605 73.7148 63.3828 73.7441 63.6758 73.8027C64.4375 73.9199 64.8184 74.6523 64.8184 76H43.1973V73.7148C43.959 73.7148 44.6328 73.6562 45.2188 73.5391C47.2695 73.1875 48.2949 71.7227 48.2949 69.1445V40.4922H43.1973V38.207H59.457V73.7148H62.709ZM60.248 26.6934C60.248 27.8066 59.9551 28.8613 59.3691 29.8574C58.1387 32.0254 56.2344 33.1094 53.6562 33.1094C52.6016 33.1094 51.5762 32.8457 50.5801 32.3184C48.2949 31.1465 47.1523 29.2715 47.1523 26.6934C47.1523 25.5801 47.416 24.5254 47.9434 23.5293C49.2324 21.2441 51.1367 20.1016 53.6562 20.1016C54.7695 20.1016 55.8242 20.3945 56.8203 20.9805C59.1055 22.2109 60.248 24.1152 60.248 26.6934Z" fill="#001489"/>
<path d="M63.6758 73.8027L63.4797 74.7833L63.5016 74.7877L63.5237 74.7911L63.6758 73.8027ZM64.8184 76V77H65.8184V76H64.8184ZM43.1973 76H42.1973V77H43.1973V76ZM43.1973 73.7148V72.7148H42.1973V73.7148H43.1973ZM45.2188 73.5391L45.0498 72.5534L45.0362 72.5558L45.0226 72.5585L45.2188 73.5391ZM48.2949 40.4922H49.2949V39.4922H48.2949V40.4922ZM43.1973 40.4922H42.1973V41.4922H43.1973V40.4922ZM43.1973 38.207V37.207H42.1973V38.207H43.1973ZM59.457 38.207H60.457V37.207H59.457V38.207ZM59.457 73.7148H58.457V74.7148H59.457V73.7148ZM59.3691 29.8574L58.5072 29.3504L58.5033 29.3571L58.4995 29.3638L59.3691 29.8574ZM50.5801 32.3184L51.048 31.4345L51.0364 31.4285L50.5801 32.3184ZM47.9434 23.5293L47.0724 23.038L47.0658 23.0496L47.0596 23.0614L47.9434 23.5293ZM56.8203 20.9805L56.3133 21.8424L56.3296 21.852L56.3462 21.8609L56.8203 20.9805ZM62.709 73.7148V74.7148C63.0059 74.7148 63.2614 74.7397 63.4797 74.7833L63.6758 73.8027L63.8719 72.8222C63.5042 72.7486 63.1152 72.7148 62.709 72.7148V73.7148ZM63.6758 73.8027L63.5237 74.7911C63.5666 74.7977 63.5776 74.8074 63.579 74.8084C63.5824 74.811 63.609 74.831 63.6455 74.9013C63.7292 75.0622 63.8184 75.3966 63.8184 76H64.8184H65.8184C65.8184 75.2557 65.7171 74.5501 65.4199 73.9786C65.0947 73.3531 64.549 72.9253 63.8278 72.8144L63.6758 73.8027ZM64.8184 76V75H43.1973V76V77H64.8184V76ZM43.1973 76H44.1973V73.7148H43.1973H42.1973V76H43.1973ZM43.1973 73.7148V74.7148C44.0078 74.7148 44.7496 74.6527 45.4149 74.5196L45.2188 73.5391L45.0226 72.5585C44.516 72.6598 43.9101 72.7148 43.1973 72.7148V73.7148ZM45.2188 73.5391L45.3877 74.5247C46.6296 74.3118 47.6542 73.7372 48.3451 72.7502C49.017 71.7904 49.2949 70.552 49.2949 69.1445H48.2949H47.2949C47.2949 70.3152 47.0602 71.0983 46.7066 71.6033C46.3722 72.0811 45.8587 72.4148 45.0498 72.5534L45.2188 73.5391ZM48.2949 69.1445H49.2949V40.4922H48.2949H47.2949V69.1445H48.2949ZM48.2949 40.4922V39.4922H43.1973V40.4922V41.4922H48.2949V40.4922ZM43.1973 40.4922H44.1973V38.207H43.1973H42.1973V40.4922H43.1973ZM43.1973 38.207V39.207H59.457V38.207V37.207H43.1973V38.207ZM59.457 38.207H58.457V73.7148H59.457H60.457V38.207H59.457ZM59.457 73.7148V74.7148H62.709V73.7148V72.7148H59.457V73.7148ZM60.248 26.6934H59.248C59.248 27.6214 59.0063 28.5019 58.5072 29.3504L59.3691 29.8574L60.2311 30.3644C60.9038 29.2208 61.248 27.9919 61.248 26.6934H60.248ZM59.3691 29.8574L58.4995 29.3638C57.454 31.2058 55.8897 32.1094 53.6562 32.1094V33.1094V34.1094C56.579 34.1094 58.8233 32.845 60.2388 30.351L59.3691 29.8574ZM53.6562 33.1094V32.1094C52.7758 32.1094 51.9101 31.891 51.048 31.4346L50.5801 32.3184L50.1122 33.2021C51.2423 33.8004 52.4273 34.1094 53.6562 34.1094V33.1094ZM50.5801 32.3184L51.0364 31.4285C50.0297 30.9123 49.3233 30.2678 48.8632 29.5128C48.403 28.7576 48.1523 27.8312 48.1523 26.6934H47.1523H46.1523C46.1523 28.1336 46.473 29.4338 47.1553 30.5536C47.8378 31.6736 48.8453 32.5526 50.1238 33.2082L50.5801 32.3184ZM47.1523 26.6934H48.1523C48.1523 25.7453 48.3751 24.851 48.8271 23.9972L47.9434 23.5293L47.0596 23.0614C46.4569 24.1998 46.1523 25.4149 46.1523 26.6934H47.1523ZM47.9434 23.5293L48.8143 24.0206C49.9352 22.0337 51.5156 21.1016 53.6562 21.1016V20.1016V19.1016C50.7578 19.1016 48.5297 20.4546 47.0724 23.038L47.9434 23.5293ZM53.6562 20.1016V21.1016C54.5843 21.1016 55.4648 21.3433 56.3133 21.8424L56.8203 20.9805L57.3273 20.1185C56.1837 19.4458 54.9548 19.1016 53.6562 19.1016V20.1016ZM56.8203 20.9805L56.3462 21.8609C57.3574 22.4054 58.0695 23.0725 58.5336 23.846C58.9975 24.6192 59.248 25.5559 59.248 26.6934H60.248H61.248C61.248 25.2526 60.9273 23.9482 60.2486 22.817C59.5702 21.6863 58.5683 20.786 57.2944 20.1L56.8203 20.9805Z" fill="black" mask="url(#path-2-outside-1_12_73)"/>
</g>
<defs>
<filter id="filter0_d_12_73" x="0" y="0" width="108" height="108" filterUnits="userSpaceOnUse" color-interpolation-filters="sRGB">
<feFlood flood-opacity="0" result="BackgroundImageFix"/>
<feColorMatrix in="SourceAlpha" type="matrix" values="0 0 0 0 0 0 0 0 0 0 0 0 0 0 0 0 0 0 127 0" result="hardAlpha"/>
<feOffset dy="4"/>
<feGaussianBlur stdDeviation="2"/>
<feComposite in2="hardAlpha" operator="out"/>
<feColorMatrix type="matrix" values="0 0 0 0 0.0108509 0 0 0 0 0.25988 0 0 0 0 0.564248 0 0 0 0.25 0"/>
<feBlend mode="normal" in2="BackgroundImageFix" result="effect1_dropShadow_12_73"/>
<feBlend mode="normal" in="SourceGraphic" in2="effect1_dropShadow_12_73" result="shape"/>
</filter>
</defs>
</svg>
